<svg width="25" height="25" viewBox="0 0 25 25" fill="none" xmlns="http://www.w3.org/2000/svg">
<path d="M8.33337 10.9375H16.6667" stroke="#B7B7B7" stroke-width="2" stroke-linecap="round"/>
<path d="M8.33337 14.5833H14.0625" stroke="#B7B7B7" stroke-width="2" stroke-linecap="round"/>
<path d="M17.7084 3.47689C16.1762 2.59059 14.3973 2.08333 12.5 2.08333C6.74707 2.08333 2.08337 6.74703 2.08337 12.5C2.08337 14.1664 2.47464 15.7412 3.17031 17.138C3.35519 17.5092 3.41672 17.9334 3.30954 18.334L2.68911 20.6528C2.41978 21.6594 3.34068 22.5802 4.34728 22.3109L6.66607 21.6905C7.06664 21.5833 7.49089 21.6449 7.86205 21.8297C9.25876 22.5254 10.8337 22.9167 12.5 22.9167C18.253 22.9167 22.9167 18.2529 22.9167 12.5C22.9167 10.6027 22.4094 8.82382 21.5232 7.29167" stroke="#B7B7B7" stroke-width="2" stroke-linecap="round"/>
</svg>
