<svg width="24" height="24" viewBox="0 0 24 24" fill="none" xmlns="http://www.w3.org/2000/svg">
<g clip-path="url(#clip0_309_2)">
<path d="M24 2.4V6.00001C24 6.63653 23.7472 7.24698 23.2971 7.69707C22.847 8.14715 22.2365 8.40001 21.6 8.40001H15.6C14.9635 8.40001 14.353 8.14715 13.903 7.69707C13.4529 7.24698 13.2 6.63653 13.2 6.00001V2.4C13.2 1.76348 13.4529 1.15303 13.903 0.702944C14.353 0.252857 14.9635 0 15.6 0H21.6C22.2365 0 22.847 0.252857 23.2971 0.702944C23.7472 1.15303 24 1.76348 24 2.4ZM8.40001 15.6H2.4C1.76348 15.6 1.15303 15.8529 0.702944 16.303C0.252857 16.7531 0 17.3635 0 18V21.6C0 22.2365 0.252857 22.847 0.702944 23.2971C1.15303 23.7472 1.76348 24 2.4 24H8.40001C9.03653 24 9.64698 23.7472 10.0971 23.2971C10.5472 22.847 10.8 22.2365 10.8 21.6V18C10.8 17.3635 10.5472 16.7531 10.0971 16.303C9.64698 15.8529 9.03653 15.6 8.40001 15.6Z" fill="#B7B7B7"/>
<path d="M10.8 2.4V10.8C10.8 11.4365 10.5472 12.047 10.0971 12.4971C9.64698 12.9472 9.03653 13.2 8.40001 13.2H2.4C1.76348 13.2 1.15303 12.9472 0.702944 12.4971C0.252857 12.047 0 11.4365 0 10.8V2.4C0 1.76348 0.252857 1.15303 0.702944 0.702944C1.15303 0.252857 1.76348 0 2.4 0H8.40001C9.03653 0 9.64698 0.252857 10.0971 0.702944C10.5472 1.15303 10.8 1.76348 10.8 2.4ZM21.6 10.8H15.6C14.9635 10.8 14.353 11.0529 13.903 11.503C13.4529 11.953 13.2 12.5635 13.2 13.2V21.6C13.2 22.2365 13.4529 22.847 13.903 23.2971C14.353 23.7472 14.9635 24 15.6 24H21.6C22.2365 24 22.847 23.7472 23.2971 23.2971C23.7472 22.847 24 22.2365 24 21.6V13.2C24 12.5635 23.7472 11.953 23.2971 11.503C22.847 11.0529 22.2365 10.8 21.6 10.8Z" fill="#B7B7B7"/>
</g>
<defs>
<clipPath id="clip0_309_2">
<rect width="24" height="24" fill="white"/>
</clipPath>
</defs>
</svg>
