<svg width="24" height="24" viewBox="0 0 24 24" fill="none" xmlns="http://www.w3.org/2000/svg">
<g clip-path="url(#clip0_330_22)">
<path fill-rule="evenodd" clip-rule="evenodd" d="M11.9999 16C9.8087 16 8.0335 14.2096 8.0335 12C8.0335 9.7904 9.8087 8 11.9999 8C14.1911 8 15.9671 9.7904 15.9671 12C15.9671 14.2096 14.1911 16 11.9999 16ZM23.2063 14.8288L21.3479 13.7472C21.4519 13.1792 21.5207 12.5992 21.5207 12C21.5207 11.4016 21.4519 10.8208 21.3479 10.2528L23.2063 9.17119C23.9655 8.72959 24.2247 7.7504 23.7863 6.9856L22.1999 4.2144C21.7623 3.4496 20.7911 3.18641 20.0327 3.62881L18.1551 4.7208C17.2783 3.9688 16.2815 3.35359 15.1735 2.95759V1.6C15.1735 0.7168 14.4631 0 13.5863 0H10.4135C9.5367 0 8.82629 0.7168 8.82629 1.6V2.95759C7.71829 3.35359 6.7215 3.9688 5.8447 4.7208L3.9671 3.62881C3.2087 3.18641 2.2375 3.4496 1.7999 4.2144L0.213495 6.9856C-0.224905 7.7504 0.0350936 8.72959 0.793494 9.17119L2.6519 10.2528C2.5479 10.8208 2.4791 11.4016 2.4791 12C2.4791 12.5992 2.5479 13.1792 2.6519 13.7472L0.793494 14.8288C0.0350936 15.2704 -0.224905 16.2496 0.213495 17.0144L1.7999 19.7856C2.2375 20.5504 3.2087 20.8136 3.9671 20.3712L5.8447 19.2792C6.7215 20.0312 7.71829 20.6472 8.82629 21.0424V22.4C8.82629 23.2832 9.5367 24 10.4135 24H13.5863C14.4631 24 15.1735 23.2832 15.1735 22.4V21.0424C16.2815 20.6472 17.2783 20.0312 18.1551 19.2792L20.0327 20.3712C20.7911 20.8136 21.7623 20.5504 22.1999 19.7856L23.7863 17.0144C24.2247 16.2496 23.9655 15.2704 23.2063 14.8288ZM11.9999 9.6C10.6855 9.6 9.6199 10.6752 9.6199 12C9.6199 13.3256 10.6855 14.4 11.9999 14.4C13.3143 14.4 14.3799 13.3256 14.3799 12C14.3799 10.6752 13.3143 9.6 11.9999 9.6Z" fill="#B7B7B7" stroke="black" stroke-width="0.00064"/>
</g>
<defs>
<clipPath id="clip0_330_22">
<rect width="24" height="24" fill="white"/>
</clipPath>
</defs>
</svg>
