<svg width="24" height="24" viewBox="0 0 24 24" fill="none" xmlns="http://www.w3.org/2000/svg">
<g clip-path="url(#clip0_309_26)">
<path d="M15.8299 1.46001H6.23995H1.44995V8.17001H6.23995H15.8299H22.5499V1.46001H15.8299Z" stroke="#B7B7B7" stroke-width="2" stroke-miterlimit="10"/>
<path d="M22.54 8.17001H15.83V12.97H22.54V8.17001Z" stroke="#B7B7B7" stroke-width="2" stroke-miterlimit="10"/>
<path d="M8.15995 8.17001H1.44995V12.97H8.15995V8.17001Z" stroke="#B7B7B7" stroke-width="2" stroke-miterlimit="10"/>
<path d="M15.8299 8.17001H8.15991V12.97H15.8299V8.17001Z" stroke="#B7B7B7" stroke-width="2" stroke-miterlimit="10"/>
<path d="M22.54 12.96H15.83V17.76H22.54V12.96Z" stroke="#B7B7B7" stroke-width="2" stroke-miterlimit="10"/>
<path d="M8.15995 12.96H1.44995V17.76H8.15995V12.96Z" stroke="#B7B7B7" stroke-width="2" stroke-miterlimit="10"/>
<path d="M15.8299 12.96H8.15991V17.76H15.8299V12.96Z" stroke="#B7B7B7" stroke-width="2" stroke-miterlimit="10"/>
<path d="M22.54 17.76H15.83V22.56H22.54V17.76Z" stroke="#B7B7B7" stroke-width="2" stroke-miterlimit="10"/>
<path d="M8.15995 17.76H1.44995V22.56H8.15995V17.76Z" stroke="#B7B7B7" stroke-width="2" stroke-miterlimit="10"/>
<path d="M15.8299 17.76H8.15991V22.56H15.8299V17.76Z" stroke="#B7B7B7" stroke-width="2" stroke-miterlimit="10"/>
</g>
<defs>
<clipPath id="clip0_309_26">
<rect width="24" height="24" fill="white"/>
</clipPath>
</defs>
</svg>
