<svg width="25" height="25" viewBox="0 0 25 25" fill="none" xmlns="http://www.w3.org/2000/svg">
<path fill-rule="evenodd" clip-rule="evenodd" d="M22.3485 14.3939H18.5606C18.1424 14.3939 17.803 14.7333 17.803 15.1515V18.1818C17.803 18.6007 18.1424 18.9394 18.5606 18.9394H22.3485V22.7273C22.3485 23.1462 22.0091 23.4848 21.5909 23.4848H3.40908C2.9909 23.4848 2.6515 23.1462 2.6515 22.7273V8.33332H21.5909C22.0091 8.33332 22.3485 8.67196 22.3485 9.09089V14.3939ZM22.3485 16.6667V17.4242H19.3182V16.6667V15.9091H22.3485V16.6667ZM20.8333 2.27271V6.81817H6.0606L20.8333 2.27271ZM22.3485 6.81817V1.51514C22.3485 1.0962 22.1697 0.86437 21.7803 0.710582C21.4803 0.591642 21.1886 0.662863 20.8333 0.75756L1.13635 6.81817V23.4848C1.13635 24.3212 1.81514 25 2.6515 25H22.3485C23.1848 25 23.8636 24.3212 23.8636 23.4848V8.33332C23.8636 7.49695 23.1848 6.81817 22.3485 6.81817Z" fill="#B7B7B7"/>
</svg>
